<?xml version="1.0" standalone="no"?>
<svg xmlns:xlink="http://www.w3.org/1999/xlink" id="wave" style="transform:rotate(0deg); transition: 0.3s" viewBox="0 0 1440 490" version="1.1" xmlns="http://www.w3.org/2000/svg"><defs><linearGradient id="sw-gradient-0" x1="0" x2="0" y1="1" y2="0"><stop stop-color="rgba(11.672, 210.576, 241.757, 1)" offset="0%"/><stop stop-color="rgba(0, 193.107, 253.141, 1)" offset="100%"/></linearGradient></defs><path style="transform:translate(0, 0px); opacity:1" fill="url(#sw-gradient-0)" d="M0,392L26.7,375.7C53.3,359,107,327,160,261.3C213.3,196,267,98,320,98C373.3,98,427,196,480,228.7C533.3,261,587,229,640,228.7C693.3,229,747,261,800,245C853.3,229,907,163,960,138.8C1013.3,114,1067,131,1120,171.5C1173.3,212,1227,278,1280,294C1333.3,310,1387,278,1440,245C1493.3,212,1547,180,1600,187.8C1653.3,196,1707,245,1760,228.7C1813.3,212,1867,131,1920,89.8C1973.3,49,2027,49,2080,73.5C2133.3,98,2187,147,2240,155.2C2293.3,163,2347,131,2400,106.2C2453.3,82,2507,65,2560,106.2C2613.3,147,2667,245,2720,294C2773.3,343,2827,343,2880,351.2C2933.3,359,2987,376,3040,334.8C3093.3,294,3147,196,3200,179.7C3253.3,163,3307,229,3360,277.7C3413.3,327,3467,359,3520,334.8C3573.3,310,3627,229,3680,220.5C3733.3,212,3787,278,3813,310.3L3840,343L3840,490L3813.3,490C3786.7,490,3733,490,3680,490C3626.7,490,3573,490,3520,490C3466.7,490,3413,490,3360,490C3306.7,490,3253,490,3200,490C3146.7,490,3093,490,3040,490C2986.7,490,2933,490,2880,490C2826.7,490,2773,490,2720,490C2666.7,490,2613,490,2560,490C2506.7,490,2453,490,2400,490C2346.7,490,2293,490,2240,490C2186.7,490,2133,490,2080,490C2026.7,490,1973,490,1920,490C1866.7,490,1813,490,1760,490C1706.7,490,1653,490,1600,490C1546.7,490,1493,490,1440,490C1386.7,490,1333,490,1280,490C1226.7,490,1173,490,1120,490C1066.7,490,1013,490,960,490C906.7,490,853,490,800,490C746.7,490,693,490,640,490C586.7,490,533,490,480,490C426.7,490,373,490,320,490C266.7,490,213,490,160,490C106.7,490,53,490,27,490L0,490Z"/></svg>