<?xml version="1.0" standalone="no"?>
<svg xmlns:xlink="http://www.w3.org/1999/xlink" id="wave" style="transform:rotate(180deg); transition: 0.3s" viewBox="0 0 1440 200" version="1.1" xmlns="http://www.w3.org/2000/svg"><defs><linearGradient id="sw-gradient-0" x1="0" x2="0" y1="1" y2="0"><stop stop-color="rgba(243, 106, 62, 1)" offset="0%"/><stop stop-color="rgba(255, 179, 11, 1)" offset="100%"/></linearGradient></defs><path style="transform:translate(0, 0px); opacity:1" fill="url(#sw-gradient-0)" d="M0,80L60,66.7C120,53,240,27,360,30C480,33,600,67,720,80C840,93,960,87,1080,76.7C1200,67,1320,53,1440,50C1560,47,1680,53,1800,66.7C1920,80,2040,100,2160,106.7C2280,113,2400,107,2520,106.7C2640,107,2760,113,2880,113.3C3000,113,3120,107,3240,93.3C3360,80,3480,60,3600,70C3720,80,3840,120,3960,130C4080,140,4200,120,4320,110C4440,100,4560,100,4680,106.7C4800,113,4920,127,5040,110C5160,93,5280,47,5400,30C5520,13,5640,27,5760,43.3C5880,60,6000,80,6120,96.7C6240,113,6360,127,6480,126.7C6600,127,6720,113,6840,120C6960,127,7080,153,7200,150C7320,147,7440,113,7560,96.7C7680,80,7800,80,7920,86.7C8040,93,8160,107,8280,113.3C8400,120,8520,120,8580,120L8640,120L8640,200L8580,200C8520,200,8400,200,8280,200C8160,200,8040,200,7920,200C7800,200,7680,200,7560,200C7440,200,7320,200,7200,200C7080,200,6960,200,6840,200C6720,200,6600,200,6480,200C6360,200,6240,200,6120,200C6000,200,5880,200,5760,200C5640,200,5520,200,5400,200C5280,200,5160,200,5040,200C4920,200,4800,200,4680,200C4560,200,4440,200,4320,200C4200,200,4080,200,3960,200C3840,200,3720,200,3600,200C3480,200,3360,200,3240,200C3120,200,3000,200,2880,200C2760,200,2640,200,2520,200C2400,200,2280,200,2160,200C2040,200,1920,200,1800,200C1680,200,1560,200,1440,200C1320,200,1200,200,1080,200C960,200,840,200,720,200C600,200,480,200,360,200C240,200,120,200,60,200L0,200Z"/></svg>